<svg width="116" height="33" viewBox="0 0 116 33" fill="none" xmlns="http://www.w3.org/2000/svg">
<g clip-path="url(#clip0_45_837)">
<path d="M0 13.4491H7.26908V6.10189H24.3829V0H0V13.4491Z" fill="#FF0000"/>
<path d="M0 33H24.3829V26.8981H7.26908V19.5509H0V33Z" fill="#FF0000"/>
<path d="M7.26907 13.4491H22.9202V19.551H7.26907V13.4491Z" fill="#FF0000"/>
<path d="M54.693 3.03228C53.6591 2.06047 52.4285 1.31172 51.0807 0.834352C49.3457 0.23644 47.5138 -0.0463094 45.675 1.24364e-05H30.6154V33H37.8844V19.551H45.675C47.5052 19.5942 49.3283 19.3115 51.0553 18.7166C52.4121 18.2424 53.6516 17.4935 54.693 16.5187C55.5978 15.6419 56.2909 14.5783 56.7217 13.4055C57.5696 11.0652 57.5696 8.51066 56.7217 6.17039C56.2925 4.98953 55.5994 3.9174 54.693 3.03228ZM49.6053 11.6621C49.2324 12.1503 48.7374 12.5363 48.168 12.7828C47.5057 13.06 46.8047 13.2384 46.0884 13.3121C45.2737 13.4061 44.4539 13.4519 43.6336 13.4491H37.8844V6.1019H43.6399C44.4603 6.09908 45.28 6.14482 46.0947 6.23888C46.812 6.31137 47.5135 6.492 48.1744 6.77435C48.7424 7.01736 49.2357 7.40158 49.6053 7.88888C49.9865 8.43844 50.1781 9.09298 50.1522 9.7568C50.1864 10.4332 49.9944 11.1021 49.6053 11.6621Z" fill="#FF0000"/>
<path d="M98.8735 26.8981V0H91.6044V33H115.987V26.8981H98.8735Z" fill="#FF0000"/>
<path d="M61.9557 13.4491H69.2248V6.10189H86.3386V0H61.9557V13.4491Z" fill="#FF0000"/>
<path d="M61.9557 19.5509H69.2248V33H61.9557V19.5509Z" fill="#FF0000"/>
<path d="M69.2248 13.4491H84.8759V19.551H69.2248V13.4491Z" fill="#FF0000"/>
</g>
<defs>
<clipPath id="clip0_45_837">
<rect width="116" height="33" fill="white"/>
</clipPath>
</defs>
</svg>
